<?xml version="1.0" encoding="utf-8"?>
<!-- Generator: Adobe Illustrator 16.0.0, SVG Export Plug-In . SVG Version: 6.00 Build 0)  -->
<!DOCTYPE svg PUBLIC "-//W3C//DTD SVG 1.1//EN" "http://www.w3.org/Graphics/SVG/1.1/DTD/svg11.dtd">
<svg version="1.1" id="Layer_1" xmlns="http://www.w3.org/2000/svg" xmlns:xlink="http://www.w3.org/1999/xlink" x="0px" y="0px"
	 width="1417.32px" height="1340px" viewBox="0 0 1417.32 1340" enable-background="new 0 0 1417.32 1340" xml:space="preserve">
<g>
	<path fill="#A00203" d="M604.908,829.148c6.974-24.886,12.205-47.901,16.131-68.643c1.895,1.571,3.869,3.071,5.981,4.445v-0.011
		v-0.005c2.981,1.971,31.955,22.368,58.562,54.829c13.91,16.876,27.151,36.859,36.615,58.724
		c9.471,21.937,15.3,45.503,15.319,71.527c-0.021,3.526-0.179,7.146-0.414,10.806h127.821c0.122-3.613,0.229-7.228,0.215-10.806
		c0.025-47.076-11.205-89.604-27.346-125.672c-24.319-54.229-59.012-94.601-87.458-122.247c-5.672-5.482-11.099-10.438-16.192-14.91
		c-2.986-111.445,34.778-161.42,96.27-220.721c27.232,19.192,67.806,52.077,111.612,102.485c0.398-3.186,0.98-6.3,1.768-9.325
		c4.309-16.684,14.026-29.107,28.896-36.953c10.572-5.579,19.837-9.065,28.07-10.628c-41.526-47.27-80.669-80.822-110.808-103.277
		c-30.291,31.332-76.109,46.014-121.24,34.38c-64.048-16.503-103.728-80.036-91.7-144.109
		c-30.546-7.993-67.422-13.344-108.647-13.363c-97.933-0.185-221.648,31.062-324.187,134.13
		c-15.906,15.981-15.86,41.838,0.122,57.749c7.964,7.938,18.388,11.898,28.811,11.904c10.48,0,20.955-4.008,28.938-12.018
		c77.489-77.719,167.524-105.166,244.825-109.459c-37.167,94.554-39.791,170.477-41.567,278c-0.066,1.419-0.153,2.833-0.117,4.272
		h-0.011c0,0.152,0.011,0.511,0.011,1.057c0.021,8.29-0.95,64.318-23.149,143.339c-13.641,48.521-35.207,105.631-69.343,166.172
		h143.351C577.997,913.589,593.733,868.984,604.908,829.148z"/>
	<ellipse fill="#A00203" cx="799.906" cy="322.021" rx="114.858" ry="114.858"/>
	<path fill="#A00203" d="M866.206,178.481c4.217-0.061,7.596-3.538,7.54-7.769l-0.722-47.259l32.9,44.487
		c1.598,2.159,4.186,3.313,6.85,3.068c2.682-0.245,5.003-1.854,6.192-4.263l18.377-37.642l13.037,47.989
		c0.674,2.496,2.588,4.497,5.049,5.288c2.46,0.786,5.188,0.275,7.177-1.363l51.148-41.797l-16.013,61.782
		c-0.629,2.435-0.03,5.007,1.603,6.912c1.634,1.904,4.089,2.884,6.585,2.629l57.893-5.912l-44.508,45.738
		c-1.833,1.863-2.566,4.518-1.984,7.055c0.592,2.547,2.424,4.599,4.875,5.492l51.332,18.423l-67.306,21.817
		c-2.235,0.721-4.026,2.455-4.834,4.666c-0.807,2.21-0.536,4.682,0.709,6.677l21.431,34.231l-38.511-9.315
		c-4.108-0.989-8.249,1.521-9.238,5.646c-0.99,4.109,1.536,8.239,5.641,9.244v-0.01l56.769,13.74
		c0.604,0.145,1.211,0.215,1.813,0.215c2.42,0,4.737-1.147,6.191-3.186c1.833-2.526,1.936-5.9,0.28-8.535l-26.191-41.843
		l79.291-25.696c3.124-1.017,5.242-3.885,5.294-7.167c0.051-3.282-1.977-6.217-5.064-7.33l-61.225-21.986l50.913-52.302
		c2.235-2.302,2.803-5.779,1.398-8.673c-1.403-2.895-4.467-4.61-7.668-4.283l-67.906,6.927l19.121-73.788
		c0.827-3.2-0.505-6.585-3.286-8.376c-2.782-1.776-6.423-1.572-8.979,0.521l-60.133,49.144l-15.271-56.248
		c-0.832-3.073-3.487-5.304-6.668-5.615c-3.17-0.296-6.201,1.399-7.596,4.268l-21.787,44.599l-39.57-53.497
		c-1.977-2.68-5.446-3.772-8.597-2.701c-3.159,1.062-5.258,4.038-5.207,7.361l1.066,71.093
		C858.492,175.168,861.969,178.554,866.206,178.481z"/>
	<path fill="#A00203" d="M1152.434,177.298c-0.179,15.069,1.664,29.362,5.544,42.808c4.441,2.103,10.163,2.43,17.188,1.036
		c1.484-4.247,1.78-8.872,0.929-13.88c-1.184-6.621-1.414-15.748-0.684-27.355c0.662-11.164,1.164-23.308,1.46-36.493
		c0.312-13.17,0.266-20.74-0.128-22.695c-0.49-2.45-2.241-4.478-5.223-6.02c-2.966-1.542-5.859-2.047-8.673-1.496
		c-2.589,0.536-5.482,2.517-8.668,5.921c-3.175,3.415-4.62,7.738-4.334,12.981c0.302,5.227,0.511,8.239,0.669,9.02
		C1152.072,148.905,1152.72,160.968,1152.434,177.298z"/>
	<path fill="#A00203" d="M1167.228,241.576c-3.635,0.72-6.621,3.517-8.942,8.372c-2.293,4.839-3.13,8.877-2.481,12.108
		c1.727,8.57,6.442,12.062,14.166,10.51c2.588-0.526,5.614-2.43,9.035-5.712c3.43-3.288,5.002-7.3,4.706-12.067l-0.275-6.733
		c-0.327-1.608-2.507-3.211-6.555-4.809C1172.833,241.643,1169.622,241.091,1167.228,241.576z"/>
	<path fill="#A00203" d="M1254.527,236.69c-3.91-1.689-7.009-2.317-9.25-1.863c-3.226,0.648-5.604,1.894-7.109,3.727
		c-0.531,0.709-1.246,1.501-2.165,2.419c-4.829,4.977-6.917,9.091-6.278,12.323c0.786,3.925,2.971,6.901,6.498,8.882
		c3.543,1.981,7.534,2.547,11.945,1.659c4.211-0.853,8.433-3.328,12.675-7.453c4.257-4.089,5.946-8.331,5.063-12.665
		C1264.799,238.17,1260.996,235.828,1254.527,236.69z"/>
	<path fill="#A00203" d="M1227.947,137.895c9.908-1.991,14.672-6.202,14.318-12.634c-0.01-1.899,1.134-4.058,3.461-6.498
		c2.317-2.45,7.274-4.421,14.854-5.952c2.588-0.526,5.282-0.638,8.035-0.307c2.762,0.322,4.717,0.883,5.818,1.721
		c1.123,0.847,2.654,3.175,4.554,7.034c1.908,3.859,3.089,6.968,3.567,9.352c0.679,3.364,0.531,6.942-0.454,10.715
		c-0.99,3.788-2.619,6.452-4.858,7.983l-13.089,8.454c-8.274,5.319-13.84,9.127-16.707,11.475c-2.845,2.313-5.87,5.493-9.076,9.5
		c-2.522,9.551-4.014,15.86-4.463,18.907c-0.438,3.038-0.325,6.228,0.327,9.516c0.622,3.093,1.786,5.932,3.491,8.561
		c1.695,2.608,3.518,3.726,5.482,3.323c6.029-1.209,10.128-2.956,12.313-5.217c2.164-2.256,3.236-5.289,3.201-9.076
		c0.021-7.152,0.5-13.39,1.383-18.667c16.381-9.653,27.121-16.366,32.211-20.138c5.068-3.757,9.057-9.372,11.931-16.861
		c2.884-7.473,3.271-16.447,1.153-26.891l-0.017-0.102c-2.042-9.454-4.567-16.177-7.555-20.179
		c-3.007-4.002-8.848-7.785-17.521-11.368c-5.288-2.292-11.822-2.477-19.622-0.541c-4.038,0.959-8.086,1.889-12.144,2.771
		c-5.794,1.317-10.98,4.12-15.615,8.408l0.103-0.026c-5.555,4.65-9.908,9.766-13.042,15.391c-3.124,5.641-4.318,10.316-3.578,14.038
		C1217.641,136.757,1221.496,139.191,1227.947,137.895z"/>
	<path fill="#A00203" d="M172.303,976.755c10.434,29.115,51.275,44.64,76.988,54.809c58.192,23.021,122.398,32.649,184.161,40.005
		c16.892,2.017,10.761-14.211-2.135-15.748c-51.629-6.156-103.031-14.671-152.828-29.896c-27.55-8.423-69.647-20.944-82.904-49.689
		c-2.48-5.385-2.681-10.535-1.313-15.405c5.232-18.678,33.769-33.119,47.387-39.739c46.656-22.676,100.43-32.169,151.206-40.302
		c14.645-2.344-4.896-16.958-14.019-15.492c-56.453,9.034-114.982,20.521-166.172,47.115
		c-19.674,10.221-41.169,26.523-42.711,48.412C169.607,965.851,170.298,971.154,172.303,976.755z"/>
	<path fill="#A00203" d="M897.967,892.589c28.646,6.83,56.999,14.771,83.938,26.818c12.403,5.549,27.875,13.242,37.242,24.671
		c3.252-5.731,6.836-10.853,10.465-15.486c-32.563-29.423-90.448-41.455-127.146-50.209
		C887.599,874.835,882.724,888.949,897.967,892.589z"/>
	<path fill="#A00203" d="M845.496,1046.811c-63.013,11.149-127.105,15.881-191.006,17.872c-16.754,0.525-2.236,16.488,8.396,16.156
		c70.99-2.217,141.884-8.331,211.762-21.271c45.09-8.352,92.879-19.396,133.665-41.634l-1.005-7.341
		c-0.792-5.805-1.118-11.271-1.128-16.492c-9.47,6.732-20.106,11.975-27.396,15.482
		C937.349,1029.501,890.453,1038.857,845.496,1046.811z"/>
	<path fill="#A00203" d="M123.155,1075.907c14.609,5.626,18.807-8.697,4.507-14.206c-14.485-5.579-32.802-12.563-50.056-21.767
		c-27.974-14.921-53.155-35.671-54.631-65.773c-1.281-26.008,26.223-46.979,45.243-59.423
		c81.154-53.099,190.22-68.791,284.146-81.721c14.614-2.012-4.927-16.749-14.019-15.493
		c-64.687,8.902-128.969,21.077-191.322,40.686c-41.735,13.124-84.079,29.902-118.275,57.811
		C5.538,934.954-7.661,960.962,2.496,990.38c10.553,30.577,42.85,51.501,75.115,66.662
		C93.696,1064.601,109.775,1070.752,123.155,1075.907z"/>
	<path fill="#A00203" d="M306.483,1121.374c182.252,28.902,370.177,30.239,553.249,8.366c61.496-7.691,122.573-18.3,182.399-34.604
		c14.563-3.966-4.869-17.983-14.018-15.493c-59.843,16.305-120.908,26.917-182.399,34.604
		c-179.057,21.395-363.177,19.632-541.365-8.622C287.489,1102.952,293.778,1119.358,306.483,1121.374z"/>
	<path fill="#A00203" d="M916.533,839.459c26.9,4.45,53.648,9.597,80.229,15.687c3.946,0.904,12.021-0.367,11.268-6.049
		c-0.817-6.064-8.459-8.57-13.4-9.698c-17.963-4.114-36.014-7.77-54.13-11.103l-1.49,1.215l0.092-1.48
		c-8.224-1.501-16.452-2.961-24.706-4.323C897.553,820.925,903.863,837.361,916.533,839.459z"/>
	<path fill="#A00203" d="M347.71,980.185c39.225,31.756,98.627,39.26,146.77,45.83c16.881,2.302,10.688-13.997-2.134-15.748
		c-37.698-5.141-76.493-11.45-111.282-27.575c-9.173-4.247-20.929-10.612-23.502-21.287c-0.046-0.198-0.03-0.383-0.071-0.576
		c-3.577-17.918,28.315-29.529,40.158-34.478c11.455-4.788-10.279-17.36-18.744-13.823c-21.943,9.168-49.418,27.392-44.88,48.301
		C335.387,967.097,339.588,973.604,347.71,980.185z"/>
	<path fill="#A00203" d="M598.23,1033.59c88.734,1.68,193.278,0.541,275.024-39.22c11.383-5.538-10.429-17.871-18.744-13.823
		c-78.617,38.244-179.327,38.5-264.678,36.887C573.116,1017.117,587.757,1033.391,598.23,1033.59z"/>
	<path fill="#A00203" d="M1017.44,1009.21c39.873-29,75.365-44.574,85.556-42.554c0,0,31.996,38.511,34.186,72.486
		c2.2,33.978-57.917,92.69-39.469,125.294c46.411-46.432,105.544-64.905,105.544-64.905s16.906,24.763,24.364,45.595
		c7.479,20.808-64.997,124.846-14.56,169.43c9.781-52.69,36.643-86.32,71.271-95.137c42.148-10.744,100.397,20.798,132.017,43.65
		c-35.063-103.329-93.042-103.728-100.429-127.975c-21.925-72.031-39.653-194.228-32.124-212.119
		c7.529-17.907,28.347-75.62,93.032-71.297c-72.007-86.678-113.9-64.391-140.726-102.472
		c-23.829-33.768-115.182-151.322-160.066-173.094c-44.896-21.787-35.055-77.893-98.586-44.396
		c-63.528,33.502,8.515,156.523,16.421,168.602c0,0-40.857,69.25-43.2,106.499c33.41-27.273,68.586-21.563,68.586-21.563
		s24.467,69.669,43.018,99.832C1080.811,915.249,1006.594,929.726,1017.44,1009.21z M1032,607.202
		c-6.346,2.886-13.818,0.076-16.707-6.269c-2.885-6.345-0.092-13.823,6.253-16.707c6.34-2.885,13.839-0.093,16.718,6.253
		C1041.158,596.824,1038.345,604.318,1032,607.202z"/>
</g>
</svg>
