<?xml version="1.0" encoding="utf-8"?>
<!-- Generator: Adobe Illustrator 16.0.0, SVG Export Plug-In . SVG Version: 6.00 Build 0)  -->
<!DOCTYPE svg PUBLIC "-//W3C//DTD SVG 1.1//EN" "http://www.w3.org/Graphics/SVG/1.1/DTD/svg11.dtd">
<svg version="1.1" id="Layer_1" xmlns="http://www.w3.org/2000/svg" xmlns:xlink="http://www.w3.org/1999/xlink" x="0px" y="0px"
	 width="1417.32px" height="1294.926px" viewBox="0 0 1417.32 1294.926" enable-background="new 0 0 1417.32 1294.926"
	 xml:space="preserve">
<path fill="#A00203" d="M1099.486,1162.275l-162.991-153.014c-0.624-0.594-1.305-1.146-1.999-1.658
	c-32.924-24.065-33.646-76.548-33.646-77.016c0-0.652-0.028-1.318-0.1-1.971L872.502,624.9
	c0.298-40.593-16.469-69.591-37.063-89.192c0-0.609,0.099-1.205,0.057-1.814L822.06,334.278
	c142.469-17.546,227.196-108.382,230.853-112.394c4.21-4.62,5.67-11.098,3.855-17.079c-1.814-5.967-6.647-10.559-12.699-12.061
	c-31.606-7.824-73.006-26.292-109.53-42.577c-10.828-4.819-21.203-9.454-30.799-13.578c-32.187-13.805-71.957-9.681-95.371-5.272
	l-4.097-60.86c-0.027-3.77-0.991-37.389-24.463-57.175C770.554,5.459,754.17-3.03,729.027,1.066
	c-25.101,4.04-67.521,25.994-67.89,82.729l-3.543,50.414c-26.773-8.901-87.676-19.602-159.108,30.5
	c-5.003,2.736-31.933,17.419-60.889,31.309c-3.188,1.531-5.683,3.997-7.44,6.945c-0.227,0.354-0.396,0.708-0.596,1.091
	c-0.921,1.814-1.644,3.728-1.898,5.811c0,0.042,0,0.099,0,0.156c0,0.042-0.029,0.071-0.029,0.113
	c-0.014,0.142,0.043,0.27,0.029,0.397c-0.171,1.984,0.07,3.926,0.553,5.811c0.113,0.439,0.198,0.865,0.34,1.29
	c0.623,1.871,1.53,3.628,2.749,5.202c0.228,0.298,0.511,0.524,0.752,0.793c0.609,0.695,1.176,1.446,1.913,2.041
	c6.108,5.032,60.321,49.55,82.573,61.299c2.239,1.191,5.159,2.906,8.674,4.947c23.031,13.422,68.499,39.911,116.461,39.911
	c0.666,0,1.347-0.113,2.013-0.127l-10.049,142.795c-55.687-10.19-110.664-18.426-132.576-16.059
	c-15.803,1.687-28.771,9.198-37.488,21.699c-14.131,20.239-13.436,49.563-11.041,68.442c-9.382,2.141-30.486,9.425-43.412,32.91
	c-17.178-6.591-42.604-9.326-67.946,6.591c-28.332,17.787-31.067,58.152-29.82,99.085c1.97,64.587,10.743,82.275,30.43,116.093
	c6.463,11.098,13.748,23.641,22.563,41.499c10.899,30.203,91.758,245.281,194.627,279.779
	c11.537,8.986,61.993,51.406,83.934,122.158c2.834,9.129,11.225,14.967,20.296,14.967c2.083,0,4.21-0.297,6.308-0.949
	c11.225-3.473,17.489-15.393,14.003-26.604c-29.226-94.18-99.567-144.113-102.544-146.195c-1.913-1.332-4.024-2.34-6.264-2.99
	C502.326,1064,426.925,893.283,403.964,829.249c-0.269-0.751-0.581-1.474-0.921-2.197c-9.709-19.771-17.9-33.859-24.491-45.184
	c-16.71-28.729-22.975-39.486-24.676-96.023c-1.389-45.043,4.635-58.465,9.936-61.781c17.433-10.941,33.193-1.644,35.136-0.411
	c0.227,0.142,0.467,0.227,0.68,0.354c0.454,25.2,9.326,55.403,26.349,90.227c-0.639,5.131-0.766,10.63-0.241,16.498l8.985,90.453
	c0.085,0.851,0.228,1.687,0.411,2.522c0.567,2.537,13.38,55.177,98.532,55.162c10.318,0,21.869-0.893,34.413-2.636
	c4.577,36.028,15.562,98.73,41.499,172.914c3.062,8.758,11.281,14.244,20.069,14.244c2.324,0,4.705-0.369,7.016-1.191
	c11.083-3.869,16.923-16.002,13.053-27.084c-33.165-94.792-40.69-171.455-42.08-189.497c10.517-30.571,9.298-56.169-3.643-76.11
	c-19.19-29.551-55.389-32.569-59.456-32.811c-11.48-0.694-21.586,8.106-22.394,19.758c-0.809,11.65,8.008,21.77,19.644,22.677
	c0.198,0.014,19.077,1.813,26.646,13.705c6.86,10.786,3.005,27.879-1.7,40.876c-0.369,0.028-0.723-0.015-1.092,0.042
	c-61.313,9.354-84.784-8.306-88.809-18.666l-8.773-88.299c-1.828-20.509,13.407-26.306,20.452-27.864l128.451-12.544
	c11.679-1.147,20.226-11.536,19.092-23.229c-1.148-11.693-11.594-20.239-23.23-19.092l-129.5,12.643
	c-0.539,0.057-1.063,0.128-1.602,0.228c-9.043,1.573-19.488,5.712-28.942,12.543c-14.697-38.707-11.211-58.167-6.859-66.728
	c4.067-8.008,10.998-11.168,14.399-12.288l175.663,29.026c11.466,1.871,22.521-5.91,24.448-17.504
	c1.914-11.579-5.924-22.521-17.504-24.448l-146.479-24.236c-2.905-13.677-4.961-38.835,2.041-48.855
	c1.389-1.998,3.075-3.316,7.144-3.756c31.28-3.458,180.014,26.107,265.662,45.241c2.438,0.666,59.684,17.136,58.705,79.498
	c-0.014,0.779,0.015,1.545,0.1,2.31l28.275,303.987c0.213,9.751,3.345,74.337,49.933,109.388l162.112,152.164
	c4.097,3.84,9.326,5.754,14.542,5.754c5.655,0,11.325-2.254,15.506-6.719C1108.472,1183.777,1108.061,1170.313,1099.486,1162.275z
	 M816.305,248.799c4.621,0.042,9.936,0.07,16.059,0.07c32.046,0,83.084-0.878,136.928-5.088
	c-35.504,22.763-86.344,47.098-149.612,55.262L816.305,248.799z M889.78,169.146c9.453,4.067,19.687,8.617,30.345,13.379
	c18.638,8.32,38.494,17.121,58.011,24.987c-68.697,5.967-135.694,6.109-164.225,5.811l-3.133-46.375
	C828.948,163.136,864.098,158.119,889.78,169.146z M518.129,194.232c74.509-52.667,132.279-25.342,136.871-23.032l-2.948,41.797
	c-26.291-0.893-94.663-7.398-145.261-12.486c5.654-3.033,9.269-5.018,9.68-5.258C517.038,194.955,517.605,194.615,518.129,194.232z
	 M543.074,261.286c-4.025-2.353-7.385-4.294-9.949-5.655c-6.364-3.358-17.179-10.983-28.886-19.743
	c49.989,5.018,116.858,11.367,145.332,12.473l-3.345,47.551C606.429,297.91,564.065,273.517,543.074,261.286z M675.707,482.473
	l27.921-396.396c0.043-0.51,0.057-1.006,0.057-1.502c-0.014-34.597,26.745-40.649,32.131-41.513
	c11.226-1.814,15.208,1.573,16.526,2.665c7.37,6.123,9.326,20.65,9.468,26.348l29.296,435.741c-3.388-1.262-6.689-2.367-9.694-3.161
	C771.263,502.386,726.844,492.536,675.707,482.473z"/>
</svg>
