<?xml version="1.0" encoding="utf-8"?>
<!-- Generator: Adobe Illustrator 16.0.0, SVG Export Plug-In . SVG Version: 6.00 Build 0)  -->
<!DOCTYPE svg PUBLIC "-//W3C//DTD SVG 1.1//EN" "http://www.w3.org/Graphics/SVG/1.1/DTD/svg11.dtd">
<svg version="1.1" id="Layer_1" xmlns="http://www.w3.org/2000/svg" xmlns:xlink="http://www.w3.org/1999/xlink" x="0px" y="0px"
	 width="1417.32px" height="1192.947px" viewBox="0 0 1417.32 1192.947" enable-background="new 0 0 1417.32 1192.947"
	 xml:space="preserve">
<g>
	<polygon fill="#A00203" points="448.525,902.875 406.005,902.875 406.005,969.032 339.83,969.032 339.83,1011.54 406.005,1011.54 
		406.005,1077.729 448.525,1077.729 448.525,1011.54 514.686,1011.54 514.686,969.032 448.525,969.032 	"/>
	<polygon fill="#A00203" points="1000.628,473.946 923.781,550.807 953.842,580.868 1000.628,534.083 1047.428,580.883 
		1077.49,550.821 	"/>
	<polygon fill="#A00203" points="967.236,338.79 1009.755,338.79 1009.755,272.615 1075.93,272.615 1075.93,230.096 
		1009.755,230.096 1009.755,163.907 967.236,163.907 967.236,230.096 901.047,230.096 901.047,272.615 967.236,272.615 	"/>
	<path fill="#A00203" d="M707.88,707.903c48.005,0,87.038-39.048,87.038-87.053c0-48.004-39.033-87.051-87.038-87.051
		s-87.052,39.061-87.052,87.065S659.89,707.903,707.88,707.903z M707.88,576.333c24.548,0,44.519,19.97,44.519,44.532
		s-19.956,44.532-44.519,44.532c-24.562,0-44.532-19.984-44.532-44.532S683.332,576.333,707.88,576.333z"/>
	<path fill="#A00203" d="M427.265,707.903c48.005,0,87.052-39.048,87.052-87.053c0-48.004-39.047-87.051-87.052-87.051
		c-48.004,0-87.052,39.061-87.052,87.065S379.26,707.903,427.265,707.903z M427.265,576.333c24.548,0,44.532,19.97,44.532,44.532
		s-19.97,44.532-44.532,44.532c-24.562,0-44.532-19.984-44.532-44.532S402.703,576.333,427.265,576.333z"/>
	<path fill="#A00203" d="M880.638,871.229c-109.999,105.751-273.813,100.608-275.457,100.58l-1.487,36.997
		c0.779,0.042,3.458,0.127,7.795,0.127c36.057,0,185.967-6.576,294.576-110.759c75.047-71.993,113.102-174.268,113.102-303.953
		h-37.063C982.104,713.274,947.975,806.488,880.638,871.229z"/>
</g>
</svg>
